<svg xmlns="http://www.w3.org/2000/svg" width="256" height="256" viewBox="0 0 18 18" shape-rendering="crispEdges"><rect x="7" y="2" width="4" height="1" fill="#FFC107"></rect><rect x="6" y="3" width="6" height="1" fill="#FFC107"></rect><rect x="5" y="4" width="8" height="1" fill="#FFC107"></rect><rect x="4" y="5" width="10" height="1" fill="#FFC107"></rect><rect x="2" y="11" width="2" height="1" fill="#34A853"></rect><rect x="3" y="10" width="2" height="1" fill="#34A853"></rect><rect x="4" y="9" width="2" height="1" fill="#34A853"></rect><rect x="5" y="8" width="2" height="1" fill="#34A853"></rect><rect x="6" y="7" width="2" height="1" fill="#34A853"></rect><rect x="7" y="12" width="4" height="2" fill="#34A853"></rect><rect x="4" y="12" width="3" height="2" fill="#34A853"></rect><rect x="14" y="11" width="2" height="1" fill="#1A73E8"></rect><rect x="13" y="10" width="2" height="1" fill="#1A73E8"></rect><rect x="12" y="9" width="2" height="1" fill="#1A73E8"></rect><rect x="11" y="8" width="2" height="1" fill="#1A73E8"></rect><rect x="10" y="7" width="2" height="1" fill="#1A73E8"></rect><rect x="11" y="12" width="4" height="2" fill="#1A73E8"></rect><rect x="7" y="6" width="4" height="1" fill="#FFC107"></rect><rect x="7" y="8" width="4" height="1" fill="#1A73E8"></rect><rect x="6" y="9" width="6" height="1" fill="#34A853"></rect></svg>
